<svg xmlns="http://www.w3.org/2000/svg" viewBox="0 0 240 200" fill="none">
  <!-- Sombras -->
  <ellipse cx="85" cy="185" rx="40" ry="7" fill="rgba(30,58,95,0.1)"/>
  <ellipse cx="165" cy="185" rx="40" ry="7" fill="rgba(30,58,95,0.1)"/>

  <!-- Tag 1 (ligeiramente inclinada) -->
  <g transform="rotate(-8, 85, 100)">
    <rect x="35" y="30" width="100" height="135" rx="20" fill="#1e3a5f"/>
    <rect x="35" y="30" width="100" height="135" rx="20" stroke="rgba(26,86,219,0.4)" stroke-width="1.5" fill="none"/>
    <rect x="47" y="46" width="76" height="103" rx="12" fill="#0f172a"/>
    <circle cx="85" cy="95" r="20" fill="rgba(249,115,22,0.15)" stroke="#f97316" stroke-width="1.5"/>
    <circle cx="85" cy="95" r="12" fill="#f97316"/>
    <circle cx="85" cy="91" r="4" fill="#ffffff"/>
    <path d="M85 95 L79 109 L85 106 L91 109 Z" fill="#ffffff"/>
    <circle cx="85" cy="132" r="3.5" fill="#22c55e"/>
    <rect x="69" y="13" width="32" height="20" rx="6" fill="#334155"/>
    <rect x="74" y="17" width="22" height="12" rx="4" fill="#1e293b"/>
    <text x="85" y="146" text-anchor="middle" font-family="Inter,sans-serif" font-size="5.5" font-weight="800" fill="rgba(255,255,255,0.4)" letter-spacing="1">AQUICOMIGO</text>
  </g>

  <!-- Tag 2 (ligeiramente inclinada oposta) -->
  <g transform="rotate(8, 165, 100)">
    <rect x="115" y="30" width="100" height="135" rx="20" fill="#1a56db"/>
    <rect x="115" y="30" width="100" height="135" rx="20" stroke="rgba(96,165,250,0.4)" stroke-width="1.5" fill="none"/>
    <rect x="127" y="46" width="76" height="103" rx="12" fill="#0f172a"/>
    <circle cx="165" cy="95" r="20" fill="rgba(249,115,22,0.15)" stroke="#f97316" stroke-width="1.5"/>
    <circle cx="165" cy="95" r="12" fill="#f97316"/>
    <circle cx="165" cy="91" r="4" fill="#ffffff"/>
    <path d="M165 95 L159 109 L165 106 L171 109 Z" fill="#ffffff"/>
    <circle cx="165" cy="132" r="3.5" fill="#22c55e"/>
    <rect x="149" y="13" width="32" height="20" rx="6" fill="#334155"/>
    <rect x="154" y="17" width="22" height="12" rx="4" fill="#1e293b"/>
    <text x="165" y="146" text-anchor="middle" font-family="Inter,sans-serif" font-size="5.5" font-weight="800" fill="rgba(255,255,255,0.4)" letter-spacing="1">AQUICOMIGO</text>
  </g>
</svg>
